<svg width="21" height="21" fill="none" xmlns="http://www.w3.org/2000/svg"><path d="M11.594 21c3.493-.38 8.044-6.392 9.406-11.926C19.998 4.666 14.91.494 9.226 0 4.922 1.335.391 7.319 0 13.045 1.637 16.55 7.177 20.642 11.594 21z" fill="#60A150"/><path d="M7.81 9.895a7.574 7.574 0 003.295 3.295l1.1-1.1a.497.497 0 01.51-.12 5.7 5.7 0 001.785.285c.275 0 .5.225.5.5V14.5c0 .275-.225.5-.5.5A8.5 8.5 0 016 6.5c0-.275.225-.5.5-.5h1.75c.275 0 .5.225.5.5 0 .625.1 1.225.285 1.785a.502.502 0 01-.125.51l-1.1 1.1z" fill="#000"/></svg>