<svg width="130" height="51" fill="none" xmlns="http://www.w3.org/2000/svg"><path d="M1.42 14.98V9.91h23.893v5.07h-8.907V39h-6.08V14.98H1.42zm43.608 3.296c-.113-1.146-.6-2.036-1.463-2.67-.861-.635-2.03-.953-3.508-.953-1.004 0-1.852.143-2.543.426-.691.275-1.221.659-1.59 1.151a2.769 2.769 0 00-.54 1.676c-.02.521.09.976.326 1.364a3.41 3.41 0 001.009 1.008c.426.275.918.517 1.477.725.559.199 1.155.37 1.79.511l2.613.625c1.27.284 2.434.663 3.495 1.137 1.06.473 1.979 1.055 2.755 1.747a7.262 7.262 0 011.804 2.443c.436.937.659 2.012.668 3.224-.01 1.78-.464 3.324-1.364 4.631-.89 1.297-2.178 2.306-3.863 3.026-1.676.71-3.698 1.065-6.066 1.065-2.348 0-4.393-.36-6.136-1.08-1.733-.72-3.087-1.785-4.063-3.196-.965-1.42-1.472-3.177-1.52-5.27h5.952c.067.976.346 1.79.838 2.444.502.644 1.17 1.131 2.003 1.463.843.322 1.795.483 2.855.483 1.042 0 1.946-.152 2.713-.455.777-.303 1.378-.724 1.804-1.264.427-.54.64-1.16.64-1.86 0-.654-.194-1.203-.583-1.649-.378-.445-.937-.823-1.676-1.136-.73-.313-1.624-.596-2.684-.852l-3.168-.796c-2.453-.596-4.39-1.529-5.81-2.798-1.42-1.269-2.126-2.978-2.116-5.128-.01-1.761.459-3.3 1.406-4.616.956-1.317 2.268-2.344 3.935-3.083 1.666-.738 3.56-1.108 5.681-1.108 2.16 0 4.044.37 5.654 1.108 1.62.739 2.879 1.766 3.778 3.083.9 1.316 1.364 2.84 1.392 4.574h-5.895zm25.839-8.367V39h-6.151V9.91h6.15zm3.952 5.071V9.91H98.71v5.07h-8.906V39h-6.08V14.98H74.82z" fill="#46E5DC"/><rect y="46" width="130" height="5" rx="2.5" fill="#46E5DC"/></svg>